<svg version="1.1" viewBox="0.0 0.0 860.0 184.0" fill="none" stroke="none" stroke-linecap="square"
    stroke-miterlimit="10" xmlns:xlink="http://www.w3.org/1999/xlink"
    xmlns="http://www.w3.org/2000/svg">
    <clipPath id="g1082b13c51e6b3d4_0.0">
        <path d="m0 0l960.0 0l0 540.0l-960.0 0l0 -540.0z" clip-rule="nonzero" />
    </clipPath>
    <g clip-path="url(#g1082b13c51e6b3d4_0.0)">
        <path fill="#000000" fill-opacity="0.0" d="m0 0l960.0 0l0 540.0l-960.0 0z"
            fill-rule="evenodd" />
        <path fill="#000000" d="m0 9.656168l151.1811 0l0 151.18109l-151.1811 0z" fill-rule="evenodd" />
        <path fill="#ffffff"
            d="m67.072945 117.15196l50.3125 0l0 20.21875l-76.453125 0l0 -100.3125l26.140625 0l0 80.09375z"
            fill-rule="nonzero" />
        <path fill="#000000" fill-opacity="0.0"
            d="m315.16534 -1.6535434l637.6378 0l0 187.46457l-637.6378 0z" fill-rule="evenodd" />
        <path fill="#000000"
            d="m348.99347 65.56025l33.53125 0l0 13.484375l-50.96875 0l0 -66.875l17.4375 0l0 53.390625zm70.62454 -18.640625q0 -3.546875 -1.984375 -5.625q-1.96875 -2.078125 -5.3125 -2.078125q-3.34375 0 -5.734375 1.671875q-2.375 1.671875 -3.28125 5.9375l-14.59375 -3.453125q1.421875 -7.296875 7.5 -11.640627q6.078125 -4.359375 17.125 -4.359375q7.390625 0 12.609375 2.1875q5.21875 2.171875 8.0 6.484377q2.796875 4.296875 2.796875 10.578125l0 18.546875q0 3.9375 3.546875 3.9375q1.828125 0 2.9375 -0.390625l-1.015625 9.828125q-3.03125 1.40625 -7.390625 1.40625q-3.953125 0 -7.0 -1.265625q-3.03125 -1.265625 -4.765625 -3.84375q-1.71875 -2.578125 -1.71875 -6.53125l0 -0.609375l1.921875 -0.71875q0 4.359375 -2.578125 7.296875q-2.578125 2.9375 -6.6875 4.359375q-4.109375 1.421875 -8.5625 1.421875q-5.171875 0 -9.03125 -1.625q-3.84375 -1.625 -5.921875 -4.703125q-2.0625 -3.09375 -2.0625 -7.65625q0 -5.46875 3.28125 -9.0625q3.296875 -3.609375 10.390625 -5.015625l19.15625 -3.953125l-0.109375 9.109375l-9.71875 2.03125q-3.046875 0.609375 -4.515625 1.78125q-1.46875 1.15625 -1.46875 3.484375q0 2.234375 1.625 3.34375q1.625 1.109375 3.84375 1.109375q1.71875 0 3.28125 -0.5q1.578125 -0.5 2.796875 -1.5625q1.21875 -1.078125 1.921875 -2.6875q0.71875 -1.625 0.71875 -3.859375l0 -13.375zm47.52838 33.140625q-5.171875 0 -9.078125 -1.765625q-3.90625 -1.78125 -6.140625 -5.734375q-2.21875 -3.953125 -2.21875 -10.34375l0 -33.84375l17.234375 0l0 29.796877q0 4.859375 1.921875 6.796875q1.921875 1.921875 5.46875 1.921875q1.828125 0 3.4375 -0.65625q1.625 -0.671875 2.84375 -2.03125q1.21875 -1.375 1.875 -3.546875q0.65625 -2.171875 0.65625 -5.125l0 -27.156252l17.234375 0l0 50.671875l-15.40625 0l-0.515625 -9.53125q-2.421875 5.375 -6.78125 7.96875q-4.359375 2.578125 -10.53125 2.578125zm45.597137 -1.015625l0 -50.671875l15.1875 0l0.71875 10.953127q1.921875 -5.671875 5.71875 -8.812502q3.796875 -3.140625 9.671875 -3.140625q1.9375 0 3.296875 0.3125q1.375 0.296875 2.1875 0.796875l-1.734375 14.187502q-1.0 -0.40625 -2.578125 -0.65625q-1.5625 -0.25 -3.796875 -0.25q-3.046875 0 -5.6875 1.3125q-2.625 1.3125 -4.203125 3.90625q-1.5625 2.578125 -1.5625 6.53125l0 25.53125l-17.21875 0zm52.18042 -56.546875q-5.265625 0 -7.65625 -1.96875q-2.375 -1.984375 -2.375 -6.234375q0 -4.359375 2.375 -6.328125q2.390625 -1.984375 7.65625 -1.984375q5.171875 0 7.59375 1.984375q2.4375 1.96875 2.4375 6.328125q0 4.25 -2.4375 6.234375q-2.421875 1.96875 -7.59375 1.96875zm8.609375 5.875l0 50.671875l-17.21875 0l0 -50.671875l17.21875 0z"
            fill-rule="nonzero" />
        <path fill="#000000"
            d="m391.85284 93.641624l0 66.87499l-19.359375 0l-20.765625 -36.171867l-5.0625 -9.9375l-0.109375 0l0.40625 12.359375l0 33.749992l-15.40625 0l0 -66.87499l19.359375 0l20.765625 36.171867l5.078125 9.9375l0.09375 0l-0.40625 -12.374992l0 -33.734375l15.40625 0zm37.9989 67.89062q-8.40625 0 -14.546875 -3.140625q-6.125 -3.140625 -9.46875 -9.015625q-3.34375 -5.875 -3.34375 -14.1875q0 -8.312492 3.34375 -14.187492q3.34375 -5.875 9.375 -9.015625q6.03125 -3.140625 13.828125 -3.140625q8.0 0 13.625 3.09375q5.625 3.078125 8.5625 8.5q2.9375 5.421875 2.9375 12.421867q0 1.8125 -0.109375 3.640625q-0.09375 1.828125 -0.296875 3.046875l-40.125 0l0 -9.234375l32.53125 0l-8.203125 3.15625q0 -6.0937424 -2.1875 -9.328117q-2.171875 -3.25 -6.734375 -3.25q-3.234375 0 -5.515625 1.53125q-2.28125 1.515625 -3.453125 4.765625q-1.15625 3.2343674 -1.15625 8.296867q0 4.96875 1.3125 8.0625q1.3125 3.09375 3.734375 4.46875q2.4375 1.359375 5.890625 1.359375q3.84375 0 6.125 -1.515625q2.28125 -1.53125 3.40625 -4.265625l13.765625 4.5625q-1.40625 4.359375 -4.90625 7.34375q-3.5 2.984375 -8.3125 4.515625q-4.8125 1.515625 -10.078125 1.515625zm65.25079 -51.687492l17.84375 0l-18.25 50.671867l-20.5625 0l-18.234375 -50.671867l18.125 0l10.4375 38.609367l10.640625 -38.609367zm51.074158 18.546867q0 -3.5468674 -1.984375 -5.6249924q-1.96875 -2.078125 -5.3125 -2.078125q-3.34375 0 -5.734375 1.671875q-2.375 1.671875 -3.28125 5.9374924l-14.59375 -3.4531174q1.421875 -7.296875 7.5 -11.640625q6.078125 -4.359375 17.125 -4.359375q7.390625 0 12.609375 2.1875q5.21875 2.171875 8.0 6.484375q2.796875 4.296875 2.796875 10.578117l0 18.546875q0 3.9375 3.546875 3.9375q1.828125 0 2.9375 -0.390625l-1.015625 9.828125q-3.03125 1.40625 -7.390625 1.40625q-3.953125 0 -7.0 -1.265625q-3.03125 -1.265625 -4.765625 -3.84375q-1.71875 -2.578125 -1.71875 -6.53125l0 -0.609375l1.921875 -0.71875q0 4.359375 -2.578125 7.296875q-2.578125 2.9375 -6.6875 4.359375q-4.109375 1.421875 -8.5625 1.421875q-5.171875 0 -9.03125 -1.625q-3.84375 -1.625 -5.921875 -4.703125q-2.0625 -3.09375 -2.0625 -7.65625q0 -5.46875 3.28125 -9.0625q3.296875 -3.609375 10.390625 -5.015625l19.15625 -3.953125l-0.109375 9.109375l-9.71875 2.03125q-3.046875 0.609375 -4.515625 1.78125q-1.46875 1.15625 -1.46875 3.484375q0 2.234375 1.625 3.34375q1.625 1.109375 3.84375 1.109375q1.71875 0 3.28125 -0.5q1.578125 -0.5 2.796875 -1.5625q1.21875 -1.078125 1.921875 -2.6875q0.71875 -1.625 0.71875 -3.859375l0 -13.375zm30.403381 32.125l0 -50.671867l15.390625 0l0.921875 17.4375l-1.9375 -1.921875q1.015625 -5.46875 3.59375 -9.109375q2.59375 -3.65625 6.484375 -5.53125q3.90625 -1.875 8.78125 -1.875q5.265625 0 9.15625 2.03125q3.90625 2.015625 6.140625 5.96875q2.234375 3.953125 2.234375 9.921875l0 33.749992l-17.234375 0l0 -29.1875q0 -5.2656174 -2.03125 -7.2812424q-2.015625 -2.03125 -5.15625 -2.03125q-2.4375 0 -4.5625 1.171875q-2.125 1.15625 -3.34375 3.6875q-1.21875 2.5312424 -1.21875 6.7812424l0 26.859375l-17.21875 0zm62.823425 21.28125l0 -71.95312l15.5 0l0.90625 18.343742l-2.03125 -2.1249924q0.71875 -5.0625 3.140625 -8.90625q2.4375 -3.859375 6.28125 -6.078125q3.859375 -2.234375 8.828125 -2.234375q6.28125 0 10.9375 3.09375q4.65625 3.078125 7.234375 8.90625q2.59375 5.828125 2.59375 14.140617q0 8.3125 -2.640625 14.296875q-2.625 5.96875 -7.34375 9.109375q-4.703125 3.140625 -10.984375 3.140625q-6.890625 0 -11.15625 -4.09375q-4.25 -4.109375 -5.671875 -10.40625l1.625 -2.421875l0 37.1875l-17.21875 0zm26.546875 -32.9375q4.453125 0 6.984375 -3.28125q2.53125 -3.296875 2.53125 -10.390625q0 -7.09375 -2.484375 -10.390617q-2.484375 -3.296875 -6.9375 -3.296875q-2.828125 0 -4.96875 1.578125q-2.125 1.5625 -3.296875 4.609375q-1.15625 3.0312424 -1.15625 7.4999924q0 4.25 1.0625 7.34375q1.0625 3.09375 3.1875 4.71875q2.140625 1.609375 5.078125 1.609375zm61.70465 12.671875q-8.40625 0 -14.546875 -3.140625q-6.125 -3.140625 -9.46875 -9.015625q-3.34375 -5.875 -3.34375 -14.1875q0 -8.312492 3.34375 -14.187492q3.34375 -5.875 9.375 -9.015625q6.03125 -3.140625 13.828125 -3.140625q8.0 0 13.625 3.09375q5.625 3.078125 8.5625 8.5q2.9375 5.421875 2.9375 12.421867q0 1.8125 -0.109375 3.640625q-0.09375 1.828125 -0.296875 3.046875l-40.125 0l0 -9.234375l32.53125 0l-8.203125 3.15625q0 -6.0937424 -2.1875 -9.328117q-2.171875 -3.25 -6.734375 -3.25q-3.234375 0 -5.515625 1.53125q-2.28125 1.515625 -3.453125 4.765625q-1.15625 3.2343674 -1.15625 8.296867q0 4.96875 1.3125 8.0625q1.3125 3.09375 3.734375 4.46875q2.4375 1.359375 5.890625 1.359375q3.84375 0 6.125 -1.515625q2.28125 -1.53125 3.40625 -4.265625l13.765625 4.5625q-1.40625 4.359375 -4.90625 7.34375q-3.5 2.984375 -8.3125 4.515625q-4.8125 1.515625 -10.078125 1.515625zm33.950195 -1.015625l0 -50.671867l15.1875 0l0.71875 10.953125q1.921875 -5.671875 5.71875 -8.8125q3.796875 -3.140625 9.671875 -3.140625q1.9375 0 3.296875 0.3125q1.375 0.296875 2.1875 0.796875l-1.734375 14.1875q-1.0 -0.40625 -2.578125 -0.65625q-1.5625 -0.25 -3.796875 -0.25q-3.046875 0 -5.6875 1.3125q-2.625 1.3125 -4.203125 3.9062424q-1.5625 2.578125 -1.5625 6.53125l0 25.53125l-17.21875 0zm71.2287 -32.125q0 -3.5468674 -1.984375 -5.6249924q-1.96875 -2.078125 -5.3125 -2.078125q-3.34375 0 -5.734375 1.671875q-2.375 1.671875 -3.28125 5.9374924l-14.59375 -3.4531174q1.421875 -7.296875 7.5 -11.640625q6.078125 -4.359375 17.125 -4.359375q7.390625 0 12.609375 2.1875q5.21875 2.171875 8.0 6.484375q2.796875 4.296875 2.796875 10.578117l0 18.546875q0 3.9375 3.546875 3.9375q1.828125 0 2.9375 -0.390625l-1.015625 9.828125q-3.03125 1.40625 -7.390625 1.40625q-3.953125 0 -7.0 -1.265625q-3.03125 -1.265625 -4.765625 -3.84375q-1.71875 -2.578125 -1.71875 -6.53125l0 -0.609375l1.921875 -0.71875q0 4.359375 -2.578125 7.296875q-2.578125 2.9375 -6.6875 4.359375q-4.109375 1.421875 -8.5625 1.421875q-5.171875 0 -9.03125 -1.625q-3.84375 -1.625 -5.921875 -4.703125q-2.0625 -3.09375 -2.0625 -7.65625q0 -5.46875 3.28125 -9.0625q3.296875 -3.609375 10.390625 -5.015625l19.15625 -3.953125l-0.109375 9.109375l-9.71875 2.03125q-3.046875 0.609375 -4.515625 1.78125q-1.46875 1.15625 -1.46875 3.484375q0 2.234375 1.625 3.34375q1.625 1.109375 3.84375 1.109375q1.71875 0 3.28125 -0.5q1.578125 -0.5 2.796875 -1.5625q1.21875 -1.078125 1.921875 -2.6875q0.71875 -1.625 0.71875 -3.859375l0 -13.375zm-17.640625 -39.812492q4.15625 0 6.4375 2.03125q2.28125 2.015625 2.28125 5.765625q0 3.640625 -2.28125 5.71875q-2.28125 2.078125 -6.4375 2.078125q-3.953125 0 -6.234375 -2.078125q-2.28125 -2.078125 -2.28125 -5.71875q0 -3.75 2.28125 -5.765625q2.28125 -2.03125 6.234375 -2.03125zm22.296875 0q4.046875 0 6.375 2.03125q2.34375 2.015625 2.34375 5.765625q0 3.640625 -2.34375 5.71875q-2.328125 2.078125 -6.375 2.078125q-3.953125 0 -6.234375 -2.078125q-2.28125 -2.078125 -2.28125 -5.71875q0 -3.75 2.28125 -5.765625q2.28125 -2.03125 6.234375 -2.03125z"
            fill-rule="nonzero" />
        <path fill="#000000" d="m166.01312 9.656168l151.18109 0l0 151.18109l-151.18109 0z"
            fill-rule="evenodd" />
        <path fill="#ffffff"
            d="m286.81894 37.058212l0 100.3125l-29.03125 0l-31.156235 -54.265625l-7.59375 -14.890625l-0.15625 0l0.609375 18.546875l0 50.609375l-23.109375 0l0 -100.3125l29.03125 0l31.156235 54.25l7.609375 14.90625l0.15625 0l-0.609375 -18.546875l0 -50.609375l23.09375 0z"
            fill-rule="nonzero" />
    </g>
</svg>