<?xml version="1.0" encoding="UTF-8" standalone="no"?>
<svg
   xmlns:dc="http://purl.org/dc/elements/1.1/"
   xmlns:cc="http://creativecommons.org/ns#"
   xmlns:rdf="http://www.w3.org/1999/02/22-rdf-syntax-ns#"
   xmlns:svg="http://www.w3.org/2000/svg"
   xmlns="http://www.w3.org/2000/svg"
   xmlns:xlink="http://www.w3.org/1999/xlink"
   xmlns:sodipodi="http://sodipodi.sourceforge.net/DTD/sodipodi-0.dtd"
   xmlns:inkscape="http://www.inkscape.org/namespaces/inkscape"
   viewBox="0 0 501.01589 581"
   height="581"
   width="501.0159"
   xml:space="preserve"
   id="svg2"
   version="1.1"
   sodipodi:docname="svg.svg"
   inkscape:version="1.0 (4035a4fb49, 2020-05-01)"><sodipodi:namedview
     inkscape:document-rotation="0"
     pagecolor="#ffffff"
     bordercolor="#666666"
     borderopacity="1"
     objecttolerance="10"
     gridtolerance="10"
     guidetolerance="10"
     inkscape:pageopacity="0"
     inkscape:pageshadow="2"
     inkscape:window-width="1920"
     inkscape:window-height="1017"
     id="namedview46"
     showgrid="false"
     inkscape:zoom="1"
     inkscape:cx="312.91549"
     inkscape:cy="278.10598"
     inkscape:window-x="-8"
     inkscape:window-y="-8"
     inkscape:window-maximized="1"
     inkscape:current-layer="svg2"
     inkscape:snap-smooth-nodes="true" /><metadata
     id="metadata8"><rdf:RDF><cc:Work
         rdf:about=""><dc:format>image/svg+xml</dc:format><dc:type
           rdf:resource="http://purl.org/dc/dcmitype/StillImage" /><dc:title /></cc:Work></rdf:RDF></metadata><defs
     id="defs6" /><g
     id="g12"
     transform="matrix(0.13333333,0,0,-0.13333333,171.383,332.17102)"><path
       id="path923"
       style="fill:#ed1c24;fill-opacity:1;fill-rule:nonzero;stroke:#000000;stroke-width:11.25;stroke-miterlimit:3.90913;stroke-dasharray:none"
       d="M 2466.5321,2485.6577 2426.2726,-57.993274 h -3665.6709 l -40.2595,2543.650974 z"
       sodipodi:nodetypes="ccccc" /><g
       style="stroke-width:2.57592;stroke-miterlimit:3.90913;stroke-dasharray:none"
       transform="matrix(4.3542101,0,0,4.3805597,-1319.1845,-1883.5389)"
       id="g894"><use
         height="100%"
         width="100%"
         transform="translate(132.72047)"
         id="use1370"
         xlink:href="#g1368"
         y="0"
         x="0" /><use
         x="0"
         y="0"
         xlink:href="#g1368"
         id="use1381"
         transform="translate(265.44091)"
         width="100%"
         height="100%" /><use
         height="100%"
         width="100%"
         transform="translate(398.16137)"
         id="use1392"
         xlink:href="#g1368"
         y="0"
         x="0" /><g
         id="g1368"><path
           style="fill:#f9cb0c;fill-opacity:1;fill-rule:nonzero;stroke:#000000;stroke-width:2.57592;stroke-miterlimit:3.90913;stroke-dasharray:none"
           d="m 245.75331,811.195 h 19.824 l -11.844,-27.027 c 32.864,-11.555 33.36,-35.824 33.36,-35.824 V 589.945 h -93.832 v 158.399 c 0,0 0,24.269 31.82,35.824 l -10.449,26.953 h 20.601 l 0.012,78.543 h 62.41 l -18.578,-16.488 16.434,-16.754 h -49.758 z"
           id="path992"
           sodipodi:nodetypes="cccccccccccccccc" /><g
           id="g1089"
           transform="translate(-3.063185)"
           style="stroke-width:2.57592;stroke-miterlimit:3.90913;stroke-dasharray:none"><path
             sodipodi:nodetypes="czczcc"
             id="path46"
             style="fill:#007edc;fill-opacity:1;fill-rule:nonzero;stroke:#000000;stroke-width:2.57592;stroke-miterlimit:3.90913;stroke-dasharray:none"
             d="m 262.504,673.316 c 0,0 0,28.70598 0,35.23678 0,6.5308 -4.613,17.49022 -19.629,17.52122 -13.578,0.031 -18.898,-11.00789 -18.898,-17.52122 0,-6.51333 0,-35.23678 0,-35.23678 z" /><path
             sodipodi:nodetypes="czcccccc"
             id="path48"
             style="fill:#000000;fill-opacity:1;fill-rule:evenodd;stroke:none;stroke-width:2.57592;stroke-miterlimit:3.90913;stroke-dasharray:none"
             d="m 244.855,723.191 c -12.472,-0.043 -15.953,-6.93733 -15.953,-15.23137 0,-8.29405 0.051,-34.64363 0.051,-34.64363 h -4.984 v 38.661 c 0,0 4.304,14.253 18.894,14.097 15.785,-0.168 19.22404,-16.25517 19.22404,-16.25517 0,0 -3.97404,13.41917 -17.23204,13.37217 z" /></g></g><path
         id="path1041"
         d="m 140.63672,418.875 v 1.28711 h -1.28711 V 647.4668 h 68.93555 v -45.42188 h 63.78515 v 45.42188 h 68.93555 v -45.42188 h 63.7832 v 45.42188 h 68.9375 v -45.42188 h 63.78321 v 45.42188 h 68.9375 v -45.42188 h 63.7832 v 45.42188 h 68.93555 V 418.875 Z"
         style="color:#000000;font-style:normal;font-variant:normal;font-weight:normal;font-stretch:normal;font-size:medium;line-height:normal;font-family:sans-serif;font-variant-ligatures:normal;font-variant-position:normal;font-variant-caps:normal;font-variant-numeric:normal;font-variant-alternates:normal;font-variant-east-asian:normal;font-feature-settings:normal;font-variation-settings:normal;text-indent:0;text-align:start;text-decoration:none;text-decoration-line:none;text-decoration-style:solid;text-decoration-color:#000000;letter-spacing:normal;word-spacing:normal;text-transform:none;writing-mode:lr-tb;direction:ltr;text-orientation:mixed;dominant-baseline:auto;baseline-shift:baseline;text-anchor:start;white-space:normal;shape-padding:0;shape-margin:0;inline-size:0;clip-rule:nonzero;display:inline;overflow:visible;visibility:visible;isolation:auto;mix-blend-mode:normal;color-interpolation:sRGB;color-interpolation-filters:linearRGB;solid-color:#000000;solid-opacity:1;vector-effect:none;fill:#000000;fill-opacity:1;fill-rule:nonzero;stroke:none;stroke-width:2.57592;stroke-linecap:butt;stroke-linejoin:miter;stroke-miterlimit:3.90913;stroke-dasharray:none;stroke-dashoffset:0;stroke-opacity:1;color-rendering:auto;image-rendering:auto;shape-rendering:auto;text-rendering:auto;enable-background:accumulate;stop-color:#000000" /><path
         sodipodi:nodetypes="ccccccccccccccccccccc"
         id="path52"
         style="fill:#f9cb0c;fill-opacity:1;fill-rule:nonzero;stroke:#000000;stroke-width:2.57592;stroke-miterlimit:3.90913;stroke-dasharray:none"
         d="M 140.637,413.31378 V 642.754 h 66.36022 v -45.422 h 66.36022 v 45.422 h 66.36023 v -45.422 h 66.36022 v 45.422 h 66.36022 v -45.422 h 66.36022 v 45.422 h 66.36023 v -45.422 h 66.36022 v 45.422 H 737.879 V 413.31378 Z" /><g
         style="stroke-width:2.57592;stroke-miterlimit:3.90913;stroke-dasharray:none"
         transform="translate(-1.1468582)"
         id="g1234"><path
           d="m 343.01599,413.31378 v 98.95612 c 0,16.83811 -8.30656,41.67017 -35.34564,41.75009 -24.4497,0.08 -34.02935,-24.95701 -34.02935,-41.75009 v -98.95612 z"
           style="fill:#007edc;fill-opacity:1;fill-rule:nonzero;stroke:#000000;stroke-width:2.57592;stroke-miterlimit:3.90913;stroke-dasharray:none"
           id="path46-5"
           sodipodi:nodetypes="czczcc" /><path
           d="m 279.941,513.57146 c 0,-15.75372 0.086,-96.83346 0.086,-96.83346 l -6.386,0.004 v 0 100.594 c 0,0 1.871,36.676 34.019,36.684 20.465,0.003 29.403,-15.965 29.403,-15.965 0,0 -3.868,13.265 -27.727,13.144 -22.457,-0.113 -29.395,-21.87382 -29.395,-37.62754 z"
           style="fill:#000000;fill-opacity:1;fill-rule:evenodd;stroke:none;stroke-width:2.57592;stroke-miterlimit:3.90913;stroke-dasharray:none"
           id="path58"
           sodipodi:nodetypes="zcccccccz" /></g><use
         style="stroke-width:2.57592;stroke-miterlimit:3.90913;stroke-dasharray:none"
         height="100%"
         width="100%"
         transform="translate(264.15234)"
         id="use1236"
         xlink:href="#g1234"
         y="0"
         x="0" /></g><path
       sodipodi:nodetypes="cczc"
       d="m -1239.1771,-57.993274 h 3665.2285 c 0,-995.547926 -820.4781,-1802.599126 -1832.61425,-1802.599126 -1012.13611,0 -1832.61425,807.0512 -1832.61425,1802.599126 z"
       style="fill:#d6dbdb;fill-opacity:1;fill-rule:nonzero;stroke:#000000;stroke-width:11.25;stroke-miterlimit:3.90913;stroke-dasharray:none"
       id="path64" /><path
       d="m 204.12288,-479.56959 c 0,0 323.63972,291.59635 335.75313,289.3754 12.12648,-2.2078 150.54246,-168.07332 206.46793,-224.33285 8.82599,-8.88378 -93.31072,-90.55493 -93.31072,-90.55493 l -448.91034,25.51238"
       style="fill:#ed1c24;fill-opacity:1;fill-rule:nonzero;stroke:#000000;stroke-width:11.25;stroke-miterlimit:3.90913;stroke-dasharray:none"
       id="path70" /><path
       d="m 1125.0905,-580.09906 110.9497,70.58396 c 0,0 36.6668,25.17069 72.3539,26.60752 42.2837,1.7128 84.2235,-38.6891 19.4546,-67.24597 -32.6696,-14.42519 -89.9885,-56.55304 -89.9885,-56.55304 l -112.7697,26.60753"
       style="fill:#ed1c24;fill-opacity:1;fill-rule:nonzero;stroke:#000000;stroke-width:11.25;stroke-miterlimit:3.90913;stroke-dasharray:none"
       id="path72" /><path
       d="m 912.02163,-952.27581 107.63177,-121.20129 c 0,0 187.7274,123.82087 292.0542,165.57199 l -54.0183,53.95097 -345.66767,-98.32167"
       style="fill:#ed1c24;fill-opacity:1;fill-rule:nonzero;stroke:#000000;stroke-width:11.25;stroke-miterlimit:3.90913;stroke-dasharray:none"
       id="path74" /><path
       sodipodi:nodetypes="ccccccccccccccccc"
       d="m 502.2687,-1040.9821 c 0,0 342.77648,51.05976 736.5407,174.0396 153.573,47.94961 270.0133,20.55358 322.229,13.70677 25.1586,3.7848 34.1022,25.95919 46.024,47.26186 27.745,49.55727 20.0381,116.75506 1.5153,161.26155 -8.7259,20.99602 -14.2339,46.11415 -29.9178,45.07158 -182.6199,-12.35318 -252.8316,-22.17877 -316.1374,-7.34182 -816.05735,191.3779 -1305.993062,114.15301 -1305.993062,114.15301 0,0 -140.950128,-9.29117 -266.934848,-65.796 0,0 -347.58787,-42.04462 -454.11362,-119.42283 -18.45314,-13.41327 -22.56787,-54.44598 64.36393,-31.74154 54.34559,-3.20674 106.29397,-12.94543 139.58727,-73.79929 -58.61558,17.38599 -121.50859,-72.23105 -173.94634,-10.1848 -17.19477,20.36522 -26.55197,-13.73744 -4.04941,-35.59205 64.53374,-62.65953 113.26171,-32.67898 154.54397,-55.72948 47.84406,-26.7477 128.10521,-36.68719 284.34733,-75.5121 167.87657,-41.72046 503.60793,-98.68526 801.94098,-80.37446"
       style="fill:#007edc;fill-opacity:1;fill-rule:nonzero;stroke:#000000;stroke-width:11.25;stroke-miterlimit:3.90913;stroke-dasharray:none"
       id="path76" /><path
       d="m -139.85971,-871.87063 c 21.72315,7.85434 295.35477,5.62901 291.73207,1.74784 0,0 20.51268,-77.4483 -75.567314,-80.93961 -76.23350823,-2.77289 -179.271536,24.45229 -198.778396,31.45243 -24.32262,8.74359 -39.08774,39.86747 -17.38636,47.73934"
       style="fill:#ed1c24;fill-opacity:1;fill-rule:nonzero;stroke:#000000;stroke-width:11.25;stroke-miterlimit:3.90913;stroke-dasharray:none"
       id="path80" /><path
       sodipodi:nodetypes="zzzzz"
       d="m -493.85792,-666.40439 c 13.34111,0 24.15855,-10.86291 24.15855,-24.28476 0,-13.42184 -10.81744,-24.30975 -24.15855,-24.30975 -13.3411,0 -24.14364,10.88791 -24.14364,24.30975 0,13.42185 10.80254,24.28476 24.14364,24.28476 z"
       style="fill:#ed1c24;fill-opacity:1;fill-rule:nonzero;stroke:#000000;stroke-width:11.25;stroke-miterlimit:3.90913;stroke-dasharray:none"
       id="path82" /><path
       d="m 334.68387,-1042.5416 c 0,0 2.19452,77.0365 125.57541,27.3785 11.66493,-4.6872 46.51603,-66.9919 47.43477,-81.1586 0,0 6.99286,-41.4621 4.659,-72.5509 -2.58204,-34.4662 -13.31517,-81.0754 -22.55045,-68.8405 0,0 -48.00081,66.2034 -80.6748,106.9821 -28.14562,35.1276 -74.44393,88.1894 -74.44393,88.1894"
       style="fill:#ed1c24;fill-opacity:1;fill-rule:nonzero;stroke:#000000;stroke-width:11.25;stroke-miterlimit:3.90913;stroke-dasharray:none"
       id="path84" /><path
       d="m 1578.6599,-599.64074 c 0,0 324.2014,174.67483 438.4646,154.32713 4.7287,-0.8367 0,-39.67912 -15.1527,-93.59943 -18.218,-62.55877 -28.6768,-141.52713 -27.3183,-182.61239 1.5153,-45.79 -7.9072,-102.17657 33.3707,-257.90547 6.0741,-22.8972 4.5588,-56.4698 4.5588,-56.4698 -10.6112,-9.1554 -62.2652,2.0019 -76.351,4.5865 -91.5212,16.7863 -375.1936,178.07847 -375.1936,178.07847 55.1243,56.41723 53.6134,131.7103 53.6134,131.7103 l -35.9919,121.88469"
       style="fill:#ed1c24;fill-opacity:1;fill-rule:nonzero;stroke:none;stroke-width:11.25;stroke-miterlimit:3.90913;stroke-dasharray:none"
       id="path86" /><path
       d="m 1578.6599,-599.64074 c 0,0 324.2014,174.67483 438.4646,154.32713 4.7287,-0.8367 0,-39.67912 -15.1527,-93.59943 -18.218,-62.55877 -28.6768,-141.52713 -27.3183,-182.61239 1.5153,-45.79 -7.9072,-102.17657 33.3707,-257.90547 6.0741,-22.8972 4.5588,-56.4698 4.5588,-56.4698 -10.6112,-9.1554 -62.2652,2.0019 -76.351,4.5865 -91.5212,16.7863 -375.1936,178.07847 -375.1936,178.07847 55.1243,56.41723 53.6134,131.7103 53.6134,131.7103 z"
       style="fill:none;stroke:#231f20;stroke-width:11.25;stroke-linecap:butt;stroke-linejoin:miter;stroke-miterlimit:3.90913;stroke-dasharray:none;stroke-opacity:1"
       id="path88" /><path
       d="m -293.85505,-595.33027 c 0,0 121.57825,-204.00268 -35.27346,-335.57279"
       style="fill:none;stroke:#000000;stroke-width:11.25;stroke-linecap:round;stroke-linejoin:miter;stroke-miterlimit:3.90913;stroke-dasharray:none;stroke-opacity:1"
       id="path90" /></g></svg>
